#define doctor_width 8
#define doctor_height 8
static unsigned char doctor_bits[] = {
   0x30, 0x10, 0x90, 0xf8, 0x1c, 0x0e, 0x07, 0x03 };
