#define trash_small_3_width 8
#define trash_small_3_height 8
static unsigned char trash_small_3_bits[] = {
   0x3c, 0x7e, 0x7f, 0xff, 0xff, 0xff, 0x7e, 0x3e };
