#define coin_width 8
#define coin_height 8
static unsigned char coin_bits[] = {
   0x3c, 0x66, 0xc3, 0x99, 0x99, 0xc3, 0x66, 0x3c };
