#define coin_width 8
#define coin_height 8
static unsigned char coin_bits[] = {
   0x00, 0x18, 0x24, 0x5a, 0x5a, 0x24, 0x18, 0x00 };
