#define doctor_width 8
#define doctor_height 8
static unsigned char doctor_bits[] = {
   0x00, 0x18, 0x18, 0x7e, 0x7e, 0x18, 0x18, 0x00 };
