#define player_width 8
#define player_height 8
static unsigned char player_bits[] = {
   0x3c, 0x3c, 0x99, 0x7e, 0x3c, 0x3c, 0x7e, 0x81 };
