#define player_2_width 8
#define player_2_height 8
static unsigned char player_2_bits[] = {
   0x3c, 0x3c, 0x18, 0x7e, 0xbd, 0x3c, 0x7e, 0x81 };
