#define wall_width 8
#define wall_height 8
static unsigned char wall_bits[] = {
   0xff, 0xc3, 0xbd, 0xa5, 0xa5, 0xbd, 0xc3, 0xff };
