#define player_width 6
#define player_height 8
static unsigned char player_bits[] = {
   0x1e, 0x1e, 0x0c, 0x3f, 0x0c, 0x1e, 0x12, 0x3f };
