#define cat_width 8
#define cat_height 8
static unsigned char cat_bits[] = {
   0xc3, 0xff, 0x81, 0xa5, 0x81, 0xdb, 0x7e, 0x3c };
