#define cat_big_width 16
#define cat_big_height 16
static unsigned char cat_big_bits[] = {
   0x07, 0xe0, 0x07, 0xe0, 0x07, 0xe0, 0xfe, 0x7f, 0x02, 0x40, 0x32, 0x4c,
   0x32, 0x4c, 0x02, 0x40, 0xc2, 0x43, 0xe2, 0x47, 0x72, 0x4e, 0x32, 0x4c,
   0x06, 0x60, 0xfc, 0x3f, 0xf8, 0x1f, 0x00, 0x00 };
