#define enemy_1_width 8
#define enemy_1_height 8
static unsigned char enemy_1_bits[] = {
   0x24, 0x7e, 0x5a, 0x7e, 0xc3, 0x5a, 0x7e, 0x42 };
