#define ship_width 8
#define ship_height 8
static unsigned char ship_bits[] = {
   0x18, 0x3c, 0x7e, 0x7e, 0x7e, 0xff, 0xff, 0x66 };
