#define trash_big_width 16
#define trash_big_height 16
static unsigned char trash_big_bits[] = {
   0x30, 0x3e, 0xfc, 0x7f, 0xfe, 0x7f, 0xfe, 0x7f, 0xff, 0x3f, 0xff, 0x3f,
   0xfe, 0x3f, 0xf8, 0x1f, 0xfc, 0x3f, 0xfc, 0x3f, 0xfc, 0x1f, 0xfe, 0x3f,
   0xfe, 0x3f, 0xf8, 0x1f, 0xe0, 0x10, 0x00, 0x00 };
