#define trash_big_2_width 16
#define trash_big_2_height 16
static unsigned char trash_big_2_bits[] = {
   0x00, 0x38, 0x70, 0x7e, 0xf8, 0x7f, 0xfe, 0x7f, 0xff, 0x3f, 0xfe, 0x3f,
   0xfe, 0x3f, 0xf8, 0x1f, 0xfc, 0x3f, 0xf0, 0x3f, 0xf0, 0x1f, 0xf8, 0x3f,
   0xfe, 0x7f, 0xf8, 0x7e, 0xe0, 0x10, 0x00, 0x00 };
