#define trash_small_2_width 8
#define trash_small_2_height 8
static unsigned char trash_small_2_bits[] = {
   0x10, 0x3c, 0x7e, 0x7e, 0x7f, 0x3f, 0x7c, 0x36 };
