#define trash_big_3_width 16
#define trash_big_3_height 16
static unsigned char trash_big_3_bits[] = {
   0xe0, 0x03, 0xf8, 0x0f, 0xfc, 0x1e, 0xfe, 0x3b, 0xfe, 0x7f, 0xfe, 0x7d,
   0xff, 0xff, 0xff, 0xff, 0xff, 0xff, 0xff, 0xff, 0xff, 0xff, 0xfe, 0xff,
   0xfe, 0x7f, 0xfe, 0x7f, 0xfc, 0x3f, 0xf0, 0x07 };
